<svg width="32" height="24" viewBox="0 0 32 24" fill="none" xmlns="http://www.w3.org/2000/svg">
<mask id="mask0_278_1102" style="mask-type:alpha" maskUnits="userSpaceOnUse" x="4" y="0" width="24" height="24">
<rect x="4" width="24" height="24" fill="#D9D9D9"/>
</mask>
<g mask="url(#mask0_278_1102)">
<path d="M15.95 18C16.3 18 16.5958 17.8792 16.8375 17.6375C17.0792 17.3958 17.2 17.1 17.2 16.75C17.2 16.4 17.0792 16.1042 16.8375 15.8625C16.5958 15.6208 16.3 15.5 15.95 15.5C15.6 15.5 15.3042 15.6208 15.0625 15.8625C14.8208 16.1042 14.7 16.4 14.7 16.75C14.7 17.1 14.8208 17.3958 15.0625 17.6375C15.3042 17.8792 15.6 18 15.95 18ZM15.05 14.15H16.9C16.9 13.6 16.9625 13.1667 17.0875 12.85C17.2125 12.5333 17.5667 12.1 18.15 11.55C18.5833 11.1167 18.925 10.7042 19.175 10.3125C19.425 9.92083 19.55 9.45 19.55 8.9C19.55 7.96667 19.2083 7.25 18.525 6.75C17.8417 6.25 17.0333 6 16.1 6C15.15 6 14.3792 6.25 13.7875 6.75C13.1958 7.25 12.7833 7.85 12.55 8.55L14.2 9.2C14.2833 8.9 14.4708 8.575 14.7625 8.225C15.0542 7.875 15.5 7.7 16.1 7.7C16.6333 7.7 17.0333 7.84583 17.3 8.1375C17.5667 8.42917 17.7 8.75 17.7 9.1C17.7 9.43333 17.6 9.74583 17.4 10.0375C17.2 10.3292 16.95 10.6 16.65 10.85C15.9167 11.5 15.4667 11.9917 15.3 12.325C15.1333 12.6583 15.05 13.2667 15.05 14.15ZM16 22C14.6167 22 13.3167 21.7375 12.1 21.2125C10.8833 20.6875 9.825 19.975 8.925 19.075C8.025 18.175 7.3125 17.1167 6.7875 15.9C6.2625 14.6833 6 13.3833 6 12C6 10.6167 6.2625 9.31667 6.7875 8.1C7.3125 6.88333 8.025 5.825 8.925 4.925C9.825 4.025 10.8833 3.3125 12.1 2.7875C13.3167 2.2625 14.6167 2 16 2C17.3833 2 18.6833 2.2625 19.9 2.7875C21.1167 3.3125 22.175 4.025 23.075 4.925C23.975 5.825 24.6875 6.88333 25.2125 8.1C25.7375 9.31667 26 10.6167 26 12C26 13.3833 25.7375 14.6833 25.2125 15.9C24.6875 17.1167 23.975 18.175 23.075 19.075C22.175 19.975 21.1167 20.6875 19.9 21.2125C18.6833 21.7375 17.3833 22 16 22ZM16 20C18.2333 20 20.125 19.225 21.675 17.675C23.225 16.125 24 14.2333 24 12C24 9.76667 23.225 7.875 21.675 6.325C20.125 4.775 18.2333 4 16 4C13.7667 4 11.875 4.775 10.325 6.325C8.775 7.875 8 9.76667 8 12C8 14.2333 8.775 16.125 10.325 17.675C11.875 19.225 13.7667 20 16 20Z" fill="#344563"/>
</g>
</svg>
